<?xml version="1.0" encoding="iso-8859-1"?>
<!-- Generator: Adobe Illustrator 16.0.0, SVG Export Plug-In . SVG Version: 6.00 Build 0)  -->
<!DOCTYPE svg PUBLIC "-//W3C//DTD SVG 1.1//EN" "http://www.w3.org/Graphics/SVG/1.1/DTD/svg11.dtd">
<svg version="1.1" id="Capa_1" xmlns="http://www.w3.org/2000/svg" xmlns:xlink="http://www.w3.org/1999/xlink" x="0px" y="0px"
	 width="97.75px" height="97.75px" viewBox="0 0 97.75 97.75" style="enable-background:new 0 0 97.75 97.75;" xml:space="preserve"
	>
<g>
	<g>
		<path d="M28.781,32.006h-4.592V45.85h4.051c2.342,0,4.143-0.549,5.404-1.646c1.261-1.098,1.891-2.945,1.891-5.545
			C35.535,34.225,33.284,32.006,28.781,32.006z"/>
		<path d="M48.875,0C21.883,0,0,21.883,0,48.875S21.883,97.75,48.875,97.75S97.75,75.867,97.75,48.875S75.867,0,48.875,0z
			 M47.153,72.867H36.495c-0.502-0.67-0.821-1.443-0.956-2.318c-0.138-0.873-0.229-1.779-0.273-2.721l-0.267-9.207
			c-0.09-1.883-0.557-3.359-1.401-4.436c-0.845-1.074-2.27-1.613-4.271-1.613h-5.138v20.295h-9.728V24.883h17.967
			c4.053,0,7.203,1.018,9.456,3.057c2.251,2.039,3.377,5.143,3.377,9.309c0,3.225-0.653,5.857-1.959,7.896
			c-1.306,2.039-3.332,3.35-6.079,3.934v0.133c1.666,0.226,2.994,0.64,3.985,1.244c0.99,0.604,1.757,1.479,2.296,2.621
			c0.541,1.143,0.912,2.588,1.114,4.336c0.204,1.746,0.327,3.896,0.372,6.451c0.045,2.553,0.191,4.502,0.439,5.846
			c0.247,1.347,0.821,2.265,1.723,2.756L47.153,72.867L47.153,72.867z M83.288,72.867h-7.16v-4.434h-0.135
			c-1.173,1.881-2.578,3.248-4.222,4.098c-1.645,0.852-3.614,1.277-5.91,1.277c-2.971,0-5.393-0.55-7.262-1.646
			c-1.869-1.098-3.332-2.721-4.389-4.871c-1.061-2.15-1.77-4.807-2.129-7.965c-0.361-3.16-0.54-6.82-0.54-10.988
			c0-4.033,0.259-7.572,0.776-10.621c0.518-3.045,1.406-5.588,2.668-7.627c1.261-2.037,2.928-3.572,4.998-4.604
			c2.07-1.029,4.66-1.545,7.768-1.545c5.312,0,9.141,1.309,11.482,3.932c2.342,2.621,3.512,6.373,3.512,11.258h-9.32
			c0-0.852-0.102-1.76-0.305-2.723c-0.201-0.963-0.529-1.836-0.979-2.621c-0.451-0.783-1.024-1.434-1.723-1.951
			c-0.697-0.512-1.543-0.771-2.531-0.771c-2.344,0-4.031,1.299-5.066,3.898c-1.036,2.599-1.553,6.9-1.553,12.904
			c0,2.912,0.09,5.523,0.269,7.83c0.18,2.309,0.509,4.279,0.979,5.914c0.474,1.635,1.148,2.889,2.025,3.764
			c0.88,0.873,2.016,1.311,3.412,1.311c0.584,0,1.227-0.158,1.924-0.473c0.698-0.311,1.352-0.781,1.959-1.41
			c0.607-0.627,1.114-1.42,1.52-2.385c0.406-0.963,0.608-2.094,0.608-3.395v-4.906h-6.417v-7.125h15.738L83.288,72.867
			L83.288,72.867z"/>
	</g>
</g>
<g>
</g>
<g>
</g>
<g>
</g>
<g>
</g>
<g>
</g>
<g>
</g>
<g>
</g>
<g>
</g>
<g>
</g>
<g>
</g>
<g>
</g>
<g>
</g>
<g>
</g>
<g>
</g>
<g>
</g>
</svg>
