<?xml version="1.0" encoding="utf-8"?>
<!-- Generator: Adobe Illustrator 22.1.0, SVG Export Plug-In . SVG Version: 6.00 Build 0)  -->
<svg version="1.1" id="Layer_1" xmlns="http://www.w3.org/2000/svg" xmlns:xlink="http://www.w3.org/1999/xlink" x="0px" y="0px"
	 viewBox="0 0 512 512" style="enable-background:new 0 0 512 512;" xml:space="preserve">
<g>
	<path d="M31,31v450h450V31H31z M294.4,366.9c-6.6,3-33.3,6-50.2-14.3c-9.2-10.6-25.4-33.4-42.4-63.9c-8.9,0-14.8,0-21.5-0.6v46.6
		c0,23.6,6,21.3,25.9,24v8.1c-6.9-0.3-23.2-0.8-35.8-0.8c-13.2,0-26.2,0.6-33.8,0.8v-8.1c15.6-2.9,22.1-1.3,22.1-24V224.9
		c0-22.7-6.4-21.1-22.1-24v-8.1c25.9,1,53.3-0.6,71.2-0.6c31.8,0,56.1,14.5,56.1,45.8c0,21.2-16.8,42.4-39.4,47.7
		c13.7,24.3,30.1,45.8,42.4,59.2c7.2,7.8,17.3,14.8,27.3,14.8L294.4,366.9L294.4,366.9z M317.4,231.3c-23.4,0-32.3-15.8-32.3-32.3
		v-32.3c0-12.3,8.8-30.5,34.2-30.5c25.3,0,30.5,18,30.5,18l-10.7,7.2c0,0-5.5-12.6-19.8-12.6c-7.9,0-19.8,7.3-19.8,19.8v26.9
		c0,13.5,6.6,23.4,18,23.4c14.2,0,21.6-10.9,21.6-26.9h-18v-10.7h30.5C351.5,201.8,356.2,231.3,317.4,231.3L317.4,231.3z
		 M200.4,276.2c-9.4,0-13.7-0.3-20.1-0.8v-70c6.4-0.6,15.1-0.6,22.6-0.6c23.4,0,37.4,12.3,37.4,34.7
		C240.2,261.4,225.2,276.2,200.4,276.2z"/>
</g>
</svg>
